<svg width="335.256" height="335.256" xmlns="http://www.w3.org/2000/svg">
    <path fill="none" d="M-1-1h337.256v337.256H-1z" />
    <g>
        <path
            d="M266.648 98.02a25.74 25.74 0 01-11.8-22.164v-10h5.46c9.65-.009 17.471-7.83 17.48-17.48V17.48c-.009-9.65-7.83-17.471-17.48-17.48H74.948c-9.65.009-17.471 7.83-17.48 17.48v30.908c.009 9.65 7.83 17.471 17.48 17.48h5.46v10A25.73 25.73 0 0168.6 98.036a49.444 49.444 0 00-23.052 40.932v148.4c.029 26.427 21.437 47.846 47.864 47.888h148.436c26.432-.042 47.842-21.472 47.86-47.904v-148.4a47.874 47.874 0 00-23.06-40.932zm-207.1 46.26h216.16v132.716H59.548V144.28zm11.92-95.892V17.48a3.484 3.484 0 013.48-3.48h185.36a3.484 3.484 0 013.48 3.48v30.908a3.484 3.484 0 01-3.48 3.48H74.948a3.484 3.484 0 01-3.48-3.48zm4.4 61.6a39.795 39.795 0 0018.54-34.132v-10h146.44v10a39.791 39.791 0 0018.548 34.14 33.6 33.6 0 0115.2 20.284H60.648a33.599 33.599 0 0115.2-20.28l.02-.012zm165.98 211.268H93.412c-17.293-.033-31.794-13.068-33.664-30.26h215.756c-1.864 17.192-16.364 30.228-33.656 30.26z" />
        <path
            d="M99.848 41.08V24.788a7 7 0 10-14 0V41.08a7 7 0 1014 0zM122.756 48.08a7.004 7.004 0 007-7V24.788a7 7 0 10-14 0V41.08a7 7 0 007 7zM152.672 48.08a7 7 0 007-7V24.788a7 7 0 10-14 0V41.08a7 7 0 007 7zM182.588 48.08a7.004 7.004 0 007-7V24.788a7 7 0 10-14 0V41.08a7 7 0 007 7zM212.504 48.08a7 7 0 007-7V24.788a7 7 0 10-14 0V41.08a7 7 0 007 7zM242.424 48.08a7.004 7.004 0 007-7V24.788a7 7 0 10-14 0V41.08a7 7 0 007 7z" />
        <text font-weight="bold" stroke="#000" transform="matrix(.99031 0 0 1 .64 0)"
            font-family="'Palatino Linotype', 'Book Antiqua', Palatino, serif" font-size="70" y="203.081" x="66.128"
            stroke-width="0">ZAKA</text><text font-weight="bold" stroke="#000"
            transform="matrix(1.17835 0 0 1 -12.697 0)"
            font-family="'Palatino Linotype', 'Book Antiqua', Palatino, serif" font-size="70" y="263.081" x="65.914"
            stroke-width="0">RIEV</text></g>
</svg>